# This file uses centimeters as units for non-parametric coordinates.

mtllib testet.mtl
g default
v -4.573331 0.488847 6.726272
v -3.573331 0.488847 6.726272
v -4.573331 1.488847 6.726272
v -3.573331 1.488847 6.726272
v -4.573331 1.488847 5.726272
v -3.573331 1.488847 5.726272
v -4.573331 0.488847 5.726272
v -3.573331 0.488847 5.726272
vt 0.375000 0.000000
vt 0.625000 0.000000
vt 0.375000 0.250000
vt 0.625000 0.250000
vt 0.375000 0.500000
vt 0.625000 0.500000
vt 0.375000 0.750000
vt 0.625000 0.750000
vt 0.375000 1.000000
vt 0.625000 1.000000
vt 0.875000 0.000000
vt 0.875000 0.250000
vt 0.125000 0.000000
vt 0.125000 0.250000
vn 0.000000 0.000000 1.000000
vn 0.000000 0.000000 1.000000
vn 0.000000 0.000000 1.000000
vn 0.000000 0.000000 1.000000
vn 0.000000 1.000000 0.000000
vn 0.000000 1.000000 0.000000
vn 0.000000 1.000000 0.000000
vn 0.000000 1.000000 0.000000
vn 0.000000 0.000000 -1.000000
vn 0.000000 0.000000 -1.000000
vn 0.000000 0.000000 -1.000000
vn 0.000000 0.000000 -1.000000
vn 0.000000 -1.000000 0.000000
vn 0.000000 -1.000000 0.000000
vn 0.000000 -1.000000 0.000000
vn 0.000000 -1.000000 0.000000
vn 1.000000 0.000000 0.000000
vn 1.000000 0.000000 0.000000
vn 1.000000 0.000000 0.000000
vn 1.000000 0.000000 0.000000
vn -1.000000 0.000000 0.000000
vn -1.000000 0.000000 0.000000
vn -1.000000 0.000000 0.000000
vn -1.000000 0.000000 0.000000
s 1
g pCube1
usemtl blinn1SG
f 1/1/1 2/2/2 3/3/3
f 3/3/3 2/2/2 4/4/4
s 2
f 3/3/5 4/4/6 5/5/7
f 5/5/7 4/4/6 6/6/8
s 3
f 5/5/9 6/6/10 7/7/11
f 7/7/11 6/6/10 8/8/12
s 4
f 7/7/13 8/8/14 1/9/15
f 1/9/15 8/8/14 2/10/16
s 5
f 2/2/17 8/11/18 4/4/19
f 4/4/19 8/11/18 6/12/20
s 6
f 7/13/21 1/1/22 5/14/23
f 5/14/23 1/1/22 3/3/24
g default
v -12.042943 -0.000000 12.042943
v -9.634355 -0.000000 12.042943
v -7.225766 -0.000000 12.042943
v -4.817177 -0.000000 12.042943
v -2.408588 -0.000000 12.042943
v 0.000000 -0.000000 12.042943
v 2.408589 -0.000000 12.042943
v 4.817177 -0.000000 12.042943
v 7.225766 -0.000000 12.042943
v 9.634356 -0.000000 12.042943
v 12.042943 -0.000000 12.042943
v -12.042943 -0.000000 9.634355
v -9.634355 -0.000000 9.634355
v -7.225766 -0.000000 9.634355
v -4.817177 -0.000000 9.634355
v -2.408588 -0.000000 9.634355
v 0.000000 -0.000000 9.634355
v 2.408589 -0.000000 9.634355
v 4.817177 -0.000000 9.634355
v 7.225766 -0.000000 9.634355
v 9.634356 -0.000000 9.634355
v 12.042943 -0.000000 9.634355
v -12.042943 -0.000000 7.225766
v -9.634355 -0.000000 7.225766
v -7.225766 -0.000000 7.225766
v -4.817177 -0.000000 7.225766
v -2.408588 -0.000000 7.225766
v 0.000000 -0.000000 7.225766
v 2.408589 -0.000000 7.225766
v 4.817177 -0.000000 7.225766
v 7.225766 -0.000000 7.225766
v 9.634356 -0.000000 7.225766
v 12.042943 -0.000000 7.225766
v -12.042943 -0.000000 4.817177
v -9.634355 -0.000000 4.817177
v -7.225766 -0.000000 4.817177
v -4.817177 -0.000000 4.817177
v -2.408588 -0.000000 4.817177
v 0.000000 -0.000000 4.817177
v 2.408589 -0.000000 4.817177
v 4.817177 -0.000000 4.817177
v 7.225766 -0.000000 4.817177
v 9.634356 -0.000000 4.817177
v 12.042943 -0.000000 4.817177
v -12.042943 -0.000000 2.408588
v -9.634355 -0.000000 2.408588
v -7.225766 -0.000000 2.408588
v -4.817177 -0.000000 2.408588
v -2.408588 -0.000000 2.408588
v 0.000000 -0.000000 2.408588
v 2.408589 -0.000000 2.408588
v 4.817177 -0.000000 2.408588
v 7.225766 -0.000000 2.408588
v 9.634356 -0.000000 2.408588
v 12.042943 -0.000000 2.408588
v -12.042943 0.000000 0.000000
v -9.634355 0.000000 0.000000
v -7.225766 0.000000 0.000000
v -4.817177 0.000000 0.000000
v -2.408588 0.000000 0.000000
v 0.000000 0.000000 0.000000
v 2.408589 0.000000 0.000000
v 4.817177 0.000000 0.000000
v 7.225766 0.000000 0.000000
v 9.634356 0.000000 0.000000
v 12.042943 0.000000 0.000000
v -12.042943 0.000000 -2.408589
v -9.634355 0.000000 -2.408589
v -7.225766 0.000000 -2.408589
v -4.817177 0.000000 -2.408589
v -2.408588 0.000000 -2.408589
v 0.000000 0.000000 -2.408589
v 2.408589 0.000000 -2.408589
v 4.817177 0.000000 -2.408589
v 7.225766 0.000000 -2.408589
v 9.634356 0.000000 -2.408589
v 12.042943 0.000000 -2.408589
v -12.042943 0.000000 -4.817177
v -9.634355 0.000000 -4.817177
v -7.225766 0.000000 -4.817177
v -4.817177 0.000000 -4.817177
v -2.408588 0.000000 -4.817177
v 0.000000 0.000000 -4.817177
v 2.408589 0.000000 -4.817177
v 4.817177 0.000000 -4.817177
v 7.225766 0.000000 -4.817177
v 9.634356 0.000000 -4.817177
v 12.042943 0.000000 -4.817177
v -12.042943 0.000000 -7.225766
v -9.634355 0.000000 -7.225766
v -7.225766 0.000000 -7.225766
v -4.817177 0.000000 -7.225766
v -2.408588 0.000000 -7.225766
v 0.000000 0.000000 -7.225766
v 2.408589 0.000000 -7.225766
v 4.817177 0.000000 -7.225766
v 7.225766 0.000000 -7.225766
v 9.634356 0.000000 -7.225766
v 12.042943 0.000000 -7.225766
v -12.042943 0.000000 -9.634356
v -9.634355 0.000000 -9.634356
v -7.225766 0.000000 -9.634356
v -4.817177 0.000000 -9.634356
v -2.408588 0.000000 -9.634356
v 0.000000 0.000000 -9.634356
v 2.408589 0.000000 -9.634356
v 4.817177 0.000000 -9.634356
v 7.225766 0.000000 -9.634356
v 9.634356 0.000000 -9.634356
v 12.042943 0.000000 -9.634356
v -12.042943 0.000000 -12.042943
v -9.634355 0.000000 -12.042943
v -7.225766 0.000000 -12.042943
v -4.817177 0.000000 -12.042943
v -2.408588 0.000000 -12.042943
v 0.000000 0.000000 -12.042943
v 2.408589 0.000000 -12.042943
v 4.817177 0.000000 -12.042943
v 7.225766 0.000000 -12.042943
v 9.634356 0.000000 -12.042943
v 12.042943 0.000000 -12.042943
vt 0.000000 0.000000
vt 0.100000 0.000000
vt 0.200000 0.000000
vt 0.300000 0.000000
vt 0.400000 0.000000
vt 0.500000 0.000000
vt 0.600000 0.000000
vt 0.700000 0.000000
vt 0.800000 0.000000
vt 0.900000 0.000000
vt 1.000000 0.000000
vt 0.000000 0.100000
vt 0.100000 0.100000
vt 0.200000 0.100000
vt 0.300000 0.100000
vt 0.400000 0.100000
vt 0.500000 0.100000
vt 0.600000 0.100000
vt 0.700000 0.100000
vt 0.800000 0.100000
vt 0.900000 0.100000
vt 1.000000 0.100000
vt 0.000000 0.200000
vt 0.100000 0.200000
vt 0.200000 0.200000
vt 0.300000 0.200000
vt 0.400000 0.200000
vt 0.500000 0.200000
vt 0.600000 0.200000
vt 0.700000 0.200000
vt 0.800000 0.200000
vt 0.900000 0.200000
vt 1.000000 0.200000
vt 0.000000 0.300000
vt 0.100000 0.300000
vt 0.200000 0.300000
vt 0.300000 0.300000
vt 0.400000 0.300000
vt 0.500000 0.300000
vt 0.600000 0.300000
vt 0.700000 0.300000
vt 0.800000 0.300000
vt 0.900000 0.300000
vt 1.000000 0.300000
vt 0.000000 0.400000
vt 0.100000 0.400000
vt 0.200000 0.400000
vt 0.300000 0.400000
vt 0.400000 0.400000
vt 0.500000 0.400000
vt 0.600000 0.400000
vt 0.700000 0.400000
vt 0.800000 0.400000
vt 0.900000 0.400000
vt 1.000000 0.400000
vt 0.000000 0.500000
vt 0.100000 0.500000
vt 0.200000 0.500000
vt 0.300000 0.500000
vt 0.400000 0.500000
vt 0.500000 0.500000
vt 0.600000 0.500000
vt 0.700000 0.500000
vt 0.800000 0.500000
vt 0.900000 0.500000
vt 1.000000 0.500000
vt 0.000000 0.600000
vt 0.100000 0.600000
vt 0.200000 0.600000
vt 0.300000 0.600000
vt 0.400000 0.600000
vt 0.500000 0.600000
vt 0.600000 0.600000
vt 0.700000 0.600000
vt 0.800000 0.600000
vt 0.900000 0.600000
vt 1.000000 0.600000
vt 0.000000 0.700000
vt 0.100000 0.700000
vt 0.200000 0.700000
vt 0.300000 0.700000
vt 0.400000 0.700000
vt 0.500000 0.700000
vt 0.600000 0.700000
vt 0.700000 0.700000
vt 0.800000 0.700000
vt 0.900000 0.700000
vt 1.000000 0.700000
vt 0.000000 0.800000
vt 0.100000 0.800000
vt 0.200000 0.800000
vt 0.300000 0.800000
vt 0.400000 0.800000
vt 0.500000 0.800000
vt 0.600000 0.800000
vt 0.700000 0.800000
vt 0.800000 0.800000
vt 0.900000 0.800000
vt 1.000000 0.800000
vt 0.000000 0.900000
vt 0.100000 0.900000
vt 0.200000 0.900000
vt 0.300000 0.900000
vt 0.400000 0.900000
vt 0.500000 0.900000
vt 0.600000 0.900000
vt 0.700000 0.900000
vt 0.800000 0.900000
vt 0.900000 0.900000
vt 1.000000 0.900000
vt 0.000000 1.000000
vt 0.100000 1.000000
vt 0.200000 1.000000
vt 0.300000 1.000000
vt 0.400000 1.000000
vt 0.500000 1.000000
vt 0.600000 1.000000
vt 0.700000 1.000000
vt 0.800000 1.000000
vt 0.900000 1.000000
vt 1.000000 1.000000
vn 0.000000 1.000000 0.000000
vn 0.000000 1.000000 0.000000
vn 0.000000 1.000000 0.000000
vn 0.000000 1.000000 0.000000
vn 0.000000 1.000000 0.000000
vn 0.000000 1.000000 0.000000
vn 0.000000 1.000000 0.000000
vn 0.000000 1.000000 0.000000
vn 0.000000 1.000000 0.000000
vn 0.000000 1.000000 0.000000
vn 0.000000 1.000000 0.000000
vn 0.000000 1.000000 0.000000
vn 0.000000 1.000000 0.000000
vn 0.000000 1.000000 0.000000
vn 0.000000 1.000000 0.000000
vn 0.000000 1.000000 0.000000
vn 0.000000 1.000000 0.000000
vn 0.000000 1.000000 0.000000
vn 0.000000 1.000000 0.000000
vn 0.000000 1.000000 0.000000
vn 0.000000 1.000000 0.000000
vn 0.000000 1.000000 0.000000
vn 0.000000 1.000000 0.000000
vn 0.000000 1.000000 0.000000
vn 0.000000 1.000000 0.000000
vn 0.000000 1.000000 0.000000
vn 0.000000 1.000000 0.000000
vn 0.000000 1.000000 0.000000
vn 0.000000 1.000000 0.000000
vn 0.000000 1.000000 0.000000
vn 0.000000 1.000000 0.000000
vn 0.000000 1.000000 0.000000
vn 0.000000 1.000000 0.000000
vn 0.000000 1.000000 0.000000
vn 0.000000 1.000000 0.000000
vn 0.000000 1.000000 0.000000
vn 0.000000 1.000000 0.000000
vn 0.000000 1.000000 0.000000
vn 0.000000 1.000000 0.000000
vn 0.000000 1.000000 0.000000
vn 0.000000 1.000000 0.000000
vn 0.000000 1.000000 0.000000
vn 0.000000 1.000000 0.000000
vn 0.000000 1.000000 0.000000
vn 0.000000 1.000000 0.000000
vn 0.000000 1.000000 0.000000
vn 0.000000 1.000000 0.000000
vn 0.000000 1.000000 0.000000
vn 0.000000 1.000000 0.000000
vn 0.000000 1.000000 0.000000
vn 0.000000 1.000000 0.000000
vn 0.000000 1.000000 0.000000
vn 0.000000 1.000000 0.000000
vn 0.000000 1.000000 0.000000
vn 0.000000 1.000000 0.000000
vn 0.000000 1.000000 0.000000
vn 0.000000 1.000000 0.000000
vn 0.000000 1.000000 0.000000
vn 0.000000 1.000000 0.000000
vn 0.000000 1.000000 0.000000
vn 0.000000 1.000000 0.000000
vn 0.000000 1.000000 0.000000
vn 0.000000 1.000000 0.000000
vn 0.000000 1.000000 0.000000
vn 0.000000 1.000000 0.000000
vn 0.000000 1.000000 0.000000
vn 0.000000 1.000000 0.000000
vn 0.000000 1.000000 0.000000
vn 0.000000 1.000000 0.000000
vn 0.000000 1.000000 0.000000
vn 0.000000 1.000000 0.000000
vn 0.000000 1.000000 0.000000
vn 0.000000 1.000000 0.000000
vn 0.000000 1.000000 0.000000
vn 0.000000 1.000000 0.000000
vn 0.000000 1.000000 0.000000
vn 0.000000 1.000000 0.000000
vn 0.000000 1.000000 0.000000
vn 0.000000 1.000000 0.000000
vn 0.000000 1.000000 0.000000
vn 0.000000 1.000000 0.000000
vn 0.000000 1.000000 0.000000
vn 0.000000 1.000000 0.000000
vn 0.000000 1.000000 0.000000
vn 0.000000 1.000000 0.000000
vn 0.000000 1.000000 0.000000
vn 0.000000 1.000000 0.000000
vn 0.000000 1.000000 0.000000
vn 0.000000 1.000000 0.000000
vn 0.000000 1.000000 0.000000
vn 0.000000 1.000000 0.000000
vn 0.000000 1.000000 0.000000
vn 0.000000 1.000000 0.000000
vn 0.000000 1.000000 0.000000
vn 0.000000 1.000000 0.000000
vn 0.000000 1.000000 0.000000
vn 0.000000 1.000000 0.000000
vn 0.000000 1.000000 0.000000
vn 0.000000 1.000000 0.000000
vn 0.000000 1.000000 0.000000
vn 0.000000 1.000000 0.000000
vn 0.000000 1.000000 0.000000
vn 0.000000 1.000000 0.000000
vn 0.000000 1.000000 0.000000
vn 0.000000 1.000000 0.000000
vn 0.000000 1.000000 0.000000
vn 0.000000 1.000000 0.000000
vn 0.000000 1.000000 0.000000
vn 0.000000 1.000000 0.000000
vn 0.000000 1.000000 0.000000
vn 0.000000 1.000000 0.000000
vn 0.000000 1.000000 0.000000
vn 0.000000 1.000000 0.000000
vn 0.000000 1.000000 0.000000
vn 0.000000 1.000000 0.000000
vn 0.000000 1.000000 0.000000
vn 0.000000 1.000000 0.000000
vn 0.000000 1.000000 0.000000
vn 0.000000 1.000000 0.000000
vn 0.000000 1.000000 0.000000
vn 0.000000 1.000000 0.000000
s 1
g pPlane1
usemtl blinn1SG
f 9/15/25 10/16/26 20/26/27
f 20/26/27 10/16/26 21/27/28
f 10/16/26 11/17/29 21/27/28
f 21/27/28 11/17/29 22/28/30
f 11/17/29 12/18/31 22/28/30
f 22/28/30 12/18/31 23/29/32
f 12/18/31 13/19/33 23/29/32
f 23/29/32 13/19/33 24/30/34
f 13/19/33 14/20/35 24/30/34
f 24/30/34 14/20/35 25/31/36
f 14/20/35 15/21/37 25/31/36
f 25/31/36 15/21/37 26/32/38
f 15/21/37 16/22/39 26/32/38
f 26/32/38 16/22/39 27/33/40
f 16/22/39 17/23/41 27/33/40
f 27/33/40 17/23/41 28/34/42
f 17/23/41 18/24/43 28/34/42
f 28/34/42 18/24/43 29/35/44
f 18/24/43 19/25/45 29/35/44
f 29/35/44 19/25/45 30/36/46
f 20/26/27 21/27/28 31/37/47
f 31/37/47 21/27/28 32/38/48
f 21/27/28 22/28/30 32/38/48
f 32/38/48 22/28/30 33/39/49
f 22/28/30 23/29/32 33/39/49
f 33/39/49 23/29/32 34/40/50
f 23/29/32 24/30/34 34/40/50
f 34/40/50 24/30/34 35/41/51
f 24/30/34 25/31/36 35/41/51
f 35/41/51 25/31/36 36/42/52
f 25/31/36 26/32/38 36/42/52
f 36/42/52 26/32/38 37/43/53
f 26/32/38 27/33/40 37/43/53
f 37/43/53 27/33/40 38/44/54
f 27/33/40 28/34/42 38/44/54
f 38/44/54 28/34/42 39/45/55
f 28/34/42 29/35/44 39/45/55
f 39/45/55 29/35/44 40/46/56
f 29/35/44 30/36/46 40/46/56
f 40/46/56 30/36/46 41/47/57
f 31/37/47 32/38/48 42/48/58
f 42/48/58 32/38/48 43/49/59
f 32/38/48 33/39/49 43/49/59
f 43/49/59 33/39/49 44/50/60
f 33/39/49 34/40/50 44/50/60
f 44/50/60 34/40/50 45/51/61
f 34/40/50 35/41/51 45/51/61
f 45/51/61 35/41/51 46/52/62
f 35/41/51 36/42/52 46/52/62
f 46/52/62 36/42/52 47/53/63
f 36/42/52 37/43/53 47/53/63
f 47/53/63 37/43/53 48/54/64
f 37/43/53 38/44/54 48/54/64
f 48/54/64 38/44/54 49/55/65
f 38/44/54 39/45/55 49/55/65
f 49/55/65 39/45/55 50/56/66
f 39/45/55 40/46/56 50/56/66
f 50/56/66 40/46/56 51/57/67
f 40/46/56 41/47/57 51/57/67
f 51/57/67 41/47/57 52/58/68
f 42/48/58 43/49/59 53/59/69
f 53/59/69 43/49/59 54/60/70
f 43/49/59 44/50/60 54/60/70
f 54/60/70 44/50/60 55/61/71
f 44/50/60 45/51/61 55/61/71
f 55/61/71 45/51/61 56/62/72
f 45/51/61 46/52/62 56/62/72
f 56/62/72 46/52/62 57/63/73
f 46/52/62 47/53/63 57/63/73
f 57/63/73 47/53/63 58/64/74
f 47/53/63 48/54/64 58/64/74
f 58/64/74 48/54/64 59/65/75
f 48/54/64 49/55/65 59/65/75
f 59/65/75 49/55/65 60/66/76
f 49/55/65 50/56/66 60/66/76
f 60/66/76 50/56/66 61/67/77
f 50/56/66 51/57/67 61/67/77
f 61/67/77 51/57/67 62/68/78
f 51/57/67 52/58/68 62/68/78
f 62/68/78 52/58/68 63/69/79
f 53/59/69 54/60/70 64/70/80
f 64/70/80 54/60/70 65/71/81
f 54/60/70 55/61/71 65/71/81
f 65/71/81 55/61/71 66/72/82
f 55/61/71 56/62/72 66/72/82
f 66/72/82 56/62/72 67/73/83
f 56/62/72 57/63/73 67/73/83
f 67/73/83 57/63/73 68/74/84
f 57/63/73 58/64/74 68/74/84
f 68/74/84 58/64/74 69/75/85
f 58/64/74 59/65/75 69/75/85
f 69/75/85 59/65/75 70/76/86
f 59/65/75 60/66/76 70/76/86
f 70/76/86 60/66/76 71/77/87
f 60/66/76 61/67/77 71/77/87
f 71/77/87 61/67/77 72/78/88
f 61/67/77 62/68/78 72/78/88
f 72/78/88 62/68/78 73/79/89
f 62/68/78 63/69/79 73/79/89
f 73/79/89 63/69/79 74/80/90
f 64/70/80 65/71/81 75/81/91
f 75/81/91 65/71/81 76/82/92
f 65/71/81 66/72/82 76/82/92
f 76/82/92 66/72/82 77/83/93
f 66/72/82 67/73/83 77/83/93
f 77/83/93 67/73/83 78/84/94
f 67/73/83 68/74/84 78/84/94
f 78/84/94 68/74/84 79/85/95
f 68/74/84 69/75/85 79/85/95
f 79/85/95 69/75/85 80/86/96
f 69/75/85 70/76/86 80/86/96
f 80/86/96 70/76/86 81/87/97
f 70/76/86 71/77/87 81/87/97
f 81/87/97 71/77/87 82/88/98
f 71/77/87 72/78/88 82/88/98
f 82/88/98 72/78/88 83/89/99
f 72/78/88 73/79/89 83/89/99
f 83/89/99 73/79/89 84/90/100
f 73/79/89 74/80/90 84/90/100
f 84/90/100 74/80/90 85/91/101
f 75/81/91 76/82/92 86/92/102
f 86/92/102 76/82/92 87/93/103
f 76/82/92 77/83/93 87/93/103
f 87/93/103 77/83/93 88/94/104
f 77/83/93 78/84/94 88/94/104
f 88/94/104 78/84/94 89/95/105
f 78/84/94 79/85/95 89/95/105
f 89/95/105 79/85/95 90/96/106
f 79/85/95 80/86/96 90/96/106
f 90/96/106 80/86/96 91/97/107
f 80/86/96 81/87/97 91/97/107
f 91/97/107 81/87/97 92/98/108
f 81/87/97 82/88/98 92/98/108
f 92/98/108 82/88/98 93/99/109
f 82/88/98 83/89/99 93/99/109
f 93/99/109 83/89/99 94/100/110
f 83/89/99 84/90/100 94/100/110
f 94/100/110 84/90/100 95/101/111
f 84/90/100 85/91/101 95/101/111
f 95/101/111 85/91/101 96/102/112
f 86/92/102 87/93/103 97/103/113
f 97/103/113 87/93/103 98/104/114
f 87/93/103 88/94/104 98/104/114
f 98/104/114 88/94/104 99/105/115
f 88/94/104 89/95/105 99/105/115
f 99/105/115 89/95/105 100/106/116
f 89/95/105 90/96/106 100/106/116
f 100/106/116 90/96/106 101/107/117
f 90/96/106 91/97/107 101/107/117
f 101/107/117 91/97/107 102/108/118
f 91/97/107 92/98/108 102/108/118
f 102/108/118 92/98/108 103/109/119
f 92/98/108 93/99/109 103/109/119
f 103/109/119 93/99/109 104/110/120
f 93/99/109 94/100/110 104/110/120
f 104/110/120 94/100/110 105/111/121
f 94/100/110 95/101/111 105/111/121
f 105/111/121 95/101/111 106/112/122
f 95/101/111 96/102/112 106/112/122
f 106/112/122 96/102/112 107/113/123
f 97/103/113 98/104/114 108/114/124
f 108/114/124 98/104/114 109/115/125
f 98/104/114 99/105/115 109/115/125
f 109/115/125 99/105/115 110/116/126
f 99/105/115 100/106/116 110/116/126
f 110/116/126 100/106/116 111/117/127
f 100/106/116 101/107/117 111/117/127
f 111/117/127 101/107/117 112/118/128
f 101/107/117 102/108/118 112/118/128
f 112/118/128 102/108/118 113/119/129
f 102/108/118 103/109/119 113/119/129
f 113/119/129 103/109/119 114/120/130
f 103/109/119 104/110/120 114/120/130
f 114/120/130 104/110/120 115/121/131
f 104/110/120 105/111/121 115/121/131
f 115/121/131 105/111/121 116/122/132
f 105/111/121 106/112/122 116/122/132
f 116/122/132 106/112/122 117/123/133
f 106/112/122 107/113/123 117/123/133
f 117/123/133 107/113/123 118/124/134
f 108/114/124 109/115/125 119/125/135
f 119/125/135 109/115/125 120/126/136
f 109/115/125 110/116/126 120/126/136
f 120/126/136 110/116/126 121/127/137
f 110/116/126 111/117/127 121/127/137
f 121/127/137 111/117/127 122/128/138
f 111/117/127 112/118/128 122/128/138
f 122/128/138 112/118/128 123/129/139
f 112/118/128 113/119/129 123/129/139
f 123/129/139 113/119/129 124/130/140
f 113/119/129 114/120/130 124/130/140
f 124/130/140 114/120/130 125/131/141
f 114/120/130 115/121/131 125/131/141
f 125/131/141 115/121/131 126/132/142
f 115/121/131 116/122/132 126/132/142
f 126/132/142 116/122/132 127/133/143
f 116/122/132 117/123/133 127/133/143
f 127/133/143 117/123/133 128/134/144
f 117/123/133 118/124/134 128/134/144
f 128/134/144 118/124/134 129/135/145
g default
v 4.494555 0.488847 6.726272
v 5.494555 0.488847 6.726272
v 4.494555 1.488847 6.726272
v 5.494555 1.488847 6.726272
v 4.494555 1.488847 5.726272
v 5.494555 1.488847 5.726272
v 4.494555 0.488847 5.726272
v 5.494555 0.488847 5.726272
vt 0.375000 0.000000
vt 0.625000 0.000000
vt 0.375000 0.250000
vt 0.625000 0.250000
vt 0.375000 0.500000
vt 0.625000 0.500000
vt 0.375000 0.750000
vt 0.625000 0.750000
vt 0.375000 1.000000
vt 0.625000 1.000000
vt 0.875000 0.000000
vt 0.875000 0.250000
vt 0.125000 0.000000
vt 0.125000 0.250000
vn 0.000000 0.000000 1.000000
vn 0.000000 0.000000 1.000000
vn 0.000000 0.000000 1.000000
vn 0.000000 0.000000 1.000000
vn 0.000000 1.000000 0.000000
vn 0.000000 1.000000 0.000000
vn 0.000000 1.000000 0.000000
vn 0.000000 1.000000 0.000000
vn 0.000000 0.000000 -1.000000
vn 0.000000 0.000000 -1.000000
vn 0.000000 0.000000 -1.000000
vn 0.000000 0.000000 -1.000000
vn 0.000000 -1.000000 0.000000
vn 0.000000 -1.000000 0.000000
vn 0.000000 -1.000000 0.000000
vn 0.000000 -1.000000 0.000000
vn 1.000000 0.000000 0.000000
vn 1.000000 0.000000 0.000000
vn 1.000000 0.000000 0.000000
vn 1.000000 0.000000 0.000000
vn -1.000000 0.000000 0.000000
vn -1.000000 0.000000 0.000000
vn -1.000000 0.000000 0.000000
vn -1.000000 0.000000 0.000000
s 1
g pCube2
usemtl blinn1SG
f 130/136/146 131/137/147 132/138/148
f 132/138/148 131/137/147 133/139/149
s 2
f 132/138/150 133/139/151 134/140/152
f 134/140/152 133/139/151 135/141/153
s 3
f 134/140/154 135/141/155 136/142/156
f 136/142/156 135/141/155 137/143/157
s 4
f 136/142/158 137/143/159 130/144/160
f 130/144/160 137/143/159 131/145/161
s 5
f 131/137/162 137/146/163 133/139/164
f 133/139/164 137/146/163 135/147/165
s 6
f 136/148/166 130/136/167 134/149/168
f 134/149/168 130/136/167 132/138/169
g default
v 7.262139 0.488847 -4.771852
v 8.262139 0.488847 -4.771852
v 7.262139 1.488847 -4.771852
v 8.262139 1.488847 -4.771852
v 7.262139 1.488847 -5.771852
v 8.262139 1.488847 -5.771852
v 7.262139 0.488847 -5.771852
v 8.262139 0.488847 -5.771852
vt 0.375000 0.000000
vt 0.625000 0.000000
vt 0.375000 0.250000
vt 0.625000 0.250000
vt 0.375000 0.500000
vt 0.625000 0.500000
vt 0.375000 0.750000
vt 0.625000 0.750000
vt 0.375000 1.000000
vt 0.625000 1.000000
vt 0.875000 0.000000
vt 0.875000 0.250000
vt 0.125000 0.000000
vt 0.125000 0.250000
vn 0.000000 0.000000 1.000000
vn 0.000000 0.000000 1.000000
vn 0.000000 0.000000 1.000000
vn 0.000000 0.000000 1.000000
vn 0.000000 1.000000 0.000000
vn 0.000000 1.000000 0.000000
vn 0.000000 1.000000 0.000000
vn 0.000000 1.000000 0.000000
vn 0.000000 0.000000 -1.000000
vn 0.000000 0.000000 -1.000000
vn 0.000000 0.000000 -1.000000
vn 0.000000 0.000000 -1.000000
vn 0.000000 -1.000000 0.000000
vn 0.000000 -1.000000 0.000000
vn 0.000000 -1.000000 0.000000
vn 0.000000 -1.000000 0.000000
vn 1.000000 0.000000 0.000000
vn 1.000000 0.000000 0.000000
vn 1.000000 0.000000 0.000000
vn 1.000000 0.000000 0.000000
vn -1.000000 0.000000 0.000000
vn -1.000000 0.000000 0.000000
vn -1.000000 0.000000 0.000000
vn -1.000000 0.000000 0.000000
s 1
g pCube3
usemtl blinn1SG
f 138/150/170 139/151/171 140/152/172
f 140/152/172 139/151/171 141/153/173
s 2
f 140/152/174 141/153/175 142/154/176
f 142/154/176 141/153/175 143/155/177
s 3
f 142/154/178 143/155/179 144/156/180
f 144/156/180 143/155/179 145/157/181
s 4
f 144/156/182 145/157/183 138/158/184
f 138/158/184 145/157/183 139/159/185
s 5
f 139/151/186 145/160/187 141/153/188
f 141/153/188 145/160/187 143/161/189
s 6
f 144/162/190 138/150/191 142/163/192
f 142/163/192 138/150/191 140/152/193
g default
v -4.721612 -0.129791 -3.843213
v -1.864333 -0.129791 -3.843213
v -4.721612 2.727488 -3.843213
v -1.864333 2.727488 -3.843213
v -4.721612 2.727488 -6.700491
v -1.864333 2.727488 -6.700491
v -4.721612 -0.129791 -6.700491
v -1.864333 -0.129791 -6.700491
vt 0.375000 0.000000
vt 0.625000 0.000000
vt 0.375000 0.250000
vt 0.625000 0.250000
vt 0.375000 0.500000
vt 0.625000 0.500000
vt 0.375000 0.750000
vt 0.625000 0.750000
vt 0.375000 1.000000
vt 0.625000 1.000000
vt 0.875000 0.000000
vt 0.875000 0.250000
vt 0.125000 0.000000
vt 0.125000 0.250000
vn 0.000000 0.000000 1.000000
vn 0.000000 0.000000 1.000000
vn 0.000000 0.000000 1.000000
vn 0.000000 0.000000 1.000000
vn 0.000000 1.000000 0.000000
vn 0.000000 1.000000 0.000000
vn 0.000000 1.000000 0.000000
vn 0.000000 1.000000 0.000000
vn 0.000000 0.000000 -1.000000
vn 0.000000 0.000000 -1.000000
vn 0.000000 0.000000 -1.000000
vn 0.000000 0.000000 -1.000000
vn 0.000000 -1.000000 0.000000
vn 0.000000 -1.000000 0.000000
vn 0.000000 -1.000000 0.000000
vn 0.000000 -1.000000 0.000000
vn 1.000000 0.000000 0.000000
vn 1.000000 0.000000 0.000000
vn 1.000000 0.000000 0.000000
vn 1.000000 0.000000 0.000000
vn -1.000000 0.000000 0.000000
vn -1.000000 0.000000 0.000000
vn -1.000000 0.000000 0.000000
vn -1.000000 0.000000 0.000000
s 1
g pCube4
usemtl blinn1SG
f 146/164/194 147/165/195 148/166/196
f 148/166/196 147/165/195 149/167/197
s 2
f 148/166/198 149/167/199 150/168/200
f 150/168/200 149/167/199 151/169/201
s 3
f 150/168/202 151/169/203 152/170/204
f 152/170/204 151/169/203 153/171/205
s 4
f 152/170/206 153/171/207 146/172/208
f 146/172/208 153/171/207 147/173/209
s 5
f 147/165/210 153/174/211 149/167/212
f 149/167/212 153/174/211 151/175/213
s 6
f 152/176/214 146/164/215 150/177/216
f 150/177/216 146/164/215 148/166/217
